<svg width="25" height="25" viewBox="0 0 25 25" fill="none" xmlns="http://www.w3.org/2000/svg">
<g clip-path="url(#clip0_126_240)">
<path d="M4.20606 20.4146C3.65606 20.4146 3.18506 20.2186 2.79306 19.8266C2.40106 19.4346 2.20539 18.9639 2.20606 18.4146V6.41461C2.20606 5.86461 2.40206 5.39361 2.79406 5.00161C3.18606 4.60961 3.65672 4.41395 4.20606 4.41461H20.2061C20.7561 4.41461 21.2271 4.61061 21.6191 5.00261C22.0111 5.39461 22.2067 5.86528 22.2061 6.41461V12.4146H4.20606V18.4146H14.2061V20.4146H4.20606ZM4.20606 8.41461H20.2061V6.41461H4.20606V8.41461ZM19.2061 22.4146V19.4146H16.2061V17.4146H19.2061V14.4146H21.2061V17.4146H24.2061V19.4146H21.2061V22.4146H19.2061Z" fill="#1ED760"/>
</g>
<defs>
<clipPath id="clip0_126_240">
<rect width="24" height="24" fill="white" transform="translate(0.206055 0.414612)"/>
</clipPath>
</defs>
</svg>
