<svg width="21" height="21" viewBox="0 0 21 21" fill="none" xmlns="http://www.w3.org/2000/svg">
<path d="M10.5 0.414612C9.18678 0.414612 7.88642 0.67327 6.67317 1.17582C5.45991 1.67836 4.35752 2.41496 3.42893 3.34354C1.55357 5.21891 0.5 7.76245 0.5 10.4146C0.5 13.0668 1.55357 15.6103 3.42893 17.4857C4.35752 18.4143 5.45991 19.1509 6.67317 19.6534C7.88642 20.156 9.18678 20.4146 10.5 20.4146C13.1522 20.4146 15.6957 19.361 17.5711 17.4857C19.4464 15.6103 20.5 13.0668 20.5 10.4146H18.5C18.5 12.5363 17.6571 14.5712 16.1569 16.0715C14.6566 17.5718 12.6217 18.4146 10.5 18.4146C8.37827 18.4146 6.34344 17.5718 4.84315 16.0715C3.34285 14.5712 2.5 12.5363 2.5 10.4146C2.5 8.29288 3.34285 6.25805 4.84315 4.75776C6.34344 3.25747 8.37827 2.41461 10.5 2.41461V0.414612ZM17.28 1.41461C17.1 1.41613 16.9278 1.4879 16.8 1.61461L15.58 2.82461L18.08 5.32461L19.3 4.11461C19.56 3.85461 19.56 3.41461 19.3 3.16461L17.75 1.61461C17.62 1.48461 17.45 1.41461 17.28 1.41461ZM14.87 3.53461L7.5 10.9146V13.4146H10L17.37 6.03461L14.87 3.53461Z" fill="#1ED760"/>
</svg>
