<svg width="25" height="25" viewBox="0 0 25 25" fill="none" xmlns="http://www.w3.org/2000/svg">
<path d="M15.6325 17.254C15.4492 17.0373 15.3575 16.7917 15.3575 16.517C15.3575 16.2423 15.4492 16.013 15.6325 15.829L17.4825 13.979H10.3075C10.0242 13.979 9.7865 13.883 9.5945 13.691C9.4025 13.499 9.30683 13.2617 9.3075 12.979C9.3075 12.6957 9.4035 12.458 9.5955 12.266C9.7875 12.074 10.0248 11.9783 10.3075 11.979H17.4825L15.6325 10.129C15.4325 9.92901 15.3325 9.69134 15.3325 9.41601C15.3325 9.14067 15.4325 8.90334 15.6325 8.70401C15.8158 8.50401 16.0452 8.40401 16.3205 8.40401C16.5958 8.40401 16.8248 8.49567 17.0075 8.67901L20.6075 12.279C20.7075 12.379 20.7785 12.4873 20.8205 12.604C20.8625 12.7207 20.8832 12.8457 20.8825 12.979C20.8825 13.1123 20.8618 13.2373 20.8205 13.354C20.7792 13.4707 20.7082 13.579 20.6075 13.679L17.0075 17.279C16.7908 17.4957 16.5532 17.5917 16.2945 17.567C16.0358 17.5423 15.8152 17.438 15.6325 17.254ZM5.3075 21.979C4.7575 21.979 4.2865 21.783 3.8945 21.391C3.5025 20.999 3.30683 20.5283 3.3075 19.979V5.97901C3.3075 5.42901 3.5035 4.95801 3.8955 4.56601C4.2875 4.17401 4.75816 3.97834 5.3075 3.97901H11.3075C11.5908 3.97901 11.8285 4.07501 12.0205 4.26701C12.2125 4.45901 12.3082 4.69634 12.3075 4.97901C12.3075 5.26234 12.2115 5.50001 12.0195 5.69201C11.8275 5.88401 11.5902 5.97967 11.3075 5.97901H5.3075V19.979H11.3075C11.5908 19.979 11.8285 20.075 12.0205 20.267C12.2125 20.459 12.3082 20.6963 12.3075 20.979C12.3075 21.2623 12.2115 21.5 12.0195 21.692C11.8275 21.884 11.5902 21.9797 11.3075 21.979H5.3075Z" fill="#1ED760"/>
</svg>
